<svg class="rich-terminal" viewBox="0 0 1238 684.4" xmlns="http://www.w3.org/2000/svg">
    <!-- Generated with Rich https://www.textualize.io -->
    <style>

    @font-face {
        font-family: "Fira Code";
        src: local("FiraCode-Regular"),
                url("https://cdnjs.cloudflare.com/ajax/libs/firacode/6.2.0/woff2/FiraCode-Regular.woff2") format("woff2"),
                url("https://cdnjs.cloudflare.com/ajax/libs/firacode/6.2.0/woff/FiraCode-Regular.woff") format("woff");
        font-style: normal;
        font-weight: 400;
    }
    @font-face {
        font-family: "Fira Code";
        src: local("FiraCode-Bold"),
                url("https://cdnjs.cloudflare.com/ajax/libs/firacode/6.2.0/woff2/FiraCode-Bold.woff2") format("woff2"),
                url("https://cdnjs.cloudflare.com/ajax/libs/firacode/6.2.0/woff/FiraCode-Bold.woff") format("woff");
        font-style: bold;
        font-weight: 700;
    }

    .terminal-3953160470-matrix {
        font-family: Fira Code, monospace;
        font-size: 20px;
        line-height: 24.4px;
        font-variant-east-asian: full-width;
    }

    .terminal-3953160470-title {
        font-size: 18px;
        font-weight: bold;
        font-family: arial;
    }

    .terminal-3953160470-r1 { fill: #c5c8c6 }
.terminal-3953160470-r2 { fill: #cba6f7;font-weight: bold }
.terminal-3953160470-r3 { fill: #cdd6f4 }
.terminal-3953160470-r4 { fill: #6c7086 }
.terminal-3953160470-r5 { fill: #a6adc8 }
.terminal-3953160470-r6 { fill: #a6e3a1 }
.terminal-3953160470-r7 { fill: #b4befe }
.terminal-3953160470-r8 { fill: #fab387 }
.terminal-3953160470-r9 { fill: #cba6f7 }
.terminal-3953160470-r10 { fill: #45475a }
.terminal-3953160470-r11 { fill: #e0e0e0 }
.terminal-3953160470-r12 { fill: #ffa62b;font-weight: bold }
.terminal-3953160470-r13 { fill: #40404a }
    </style>

    <defs>
    <clipPath id="terminal-3953160470-clip-terminal">
      <rect x="0" y="0" width="1219.0" height="633.4" />
    </clipPath>
    <clipPath id="terminal-3953160470-line-0">
    <rect x="0" y="1.5" width="1220" height="24.65"/>
            </clipPath>
<clipPath id="terminal-3953160470-line-1">
    <rect x="0" y="25.9" width="1220" height="24.65"/>
            </clipPath>
<clipPath id="terminal-3953160470-line-2">
    <rect x="0" y="50.3" width="1220" height="24.65"/>
            </clipPath>
<clipPath id="terminal-3953160470-line-3">
    <rect x="0" y="74.7" width="1220" height="24.65"/>
            </clipPath>
<clipPath id="terminal-3953160470-line-4">
    <rect x="0" y="99.1" width="1220" height="24.65"/>
            </clipPath>
<clipPath id="terminal-3953160470-line-5">
    <rect x="0" y="123.5" width="1220" height="24.65"/>
            </clipPath>
<clipPath id="terminal-3953160470-line-6">
    <rect x="0" y="147.9" width="1220" height="24.65"/>
            </clipPath>
<clipPath id="terminal-3953160470-line-7">
    <rect x="0" y="172.3" width="1220" height="24.65"/>
            </clipPath>
<clipPath id="terminal-3953160470-line-8">
    <rect x="0" y="196.7" width="1220" height="24.65"/>
            </clipPath>
<clipPath id="terminal-3953160470-line-9">
    <rect x="0" y="221.1" width="1220" height="24.65"/>
            </clipPath>
<clipPath id="terminal-3953160470-line-10">
    <rect x="0" y="245.5" width="1220" height="24.65"/>
            </clipPath>
<clipPath id="terminal-3953160470-line-11">
    <rect x="0" y="269.9" width="1220" height="24.65"/>
            </clipPath>
<clipPath id="terminal-3953160470-line-12">
    <rect x="0" y="294.3" width="1220" height="24.65"/>
            </clipPath>
<clipPath id="terminal-3953160470-line-13">
    <rect x="0" y="318.7" width="1220" height="24.65"/>
            </clipPath>
<clipPath id="terminal-3953160470-line-14">
    <rect x="0" y="343.1" width="1220" height="24.65"/>
            </clipPath>
<clipPath id="terminal-3953160470-line-15">
    <rect x="0" y="367.5" width="1220" height="24.65"/>
            </clipPath>
<clipPath id="terminal-3953160470-line-16">
    <rect x="0" y="391.9" width="1220" height="24.65"/>
            </clipPath>
<clipPath id="terminal-3953160470-line-17">
    <rect x="0" y="416.3" width="1220" height="24.65"/>
            </clipPath>
<clipPath id="terminal-3953160470-line-18">
    <rect x="0" y="440.7" width="1220" height="24.65"/>
            </clipPath>
<clipPath id="terminal-3953160470-line-19">
    <rect x="0" y="465.1" width="1220" height="24.65"/>
            </clipPath>
<clipPath id="terminal-3953160470-line-20">
    <rect x="0" y="489.5" width="1220" height="24.65"/>
            </clipPath>
<clipPath id="terminal-3953160470-line-21">
    <rect x="0" y="513.9" width="1220" height="24.65"/>
            </clipPath>
<clipPath id="terminal-3953160470-line-22">
    <rect x="0" y="538.3" width="1220" height="24.65"/>
            </clipPath>
<clipPath id="terminal-3953160470-line-23">
    <rect x="0" y="562.7" width="1220" height="24.65"/>
            </clipPath>
<clipPath id="terminal-3953160470-line-24">
    <rect x="0" y="587.1" width="1220" height="24.65"/>
            </clipPath>
    </defs>

    <rect fill="#292929" stroke="rgba(255,255,255,0.35)" stroke-width="1" x="1" y="1" width="1236" height="682.4" rx="8"/><text class="terminal-3953160470-title" fill="#c5c8c6" text-anchor="middle" x="618" y="27">purrge</text>
            <g transform="translate(26,22)">
            <circle cx="0" cy="0" r="7" fill="#ff5f57"/>
            <circle cx="22" cy="0" r="7" fill="#febc2e"/>
            <circle cx="44" cy="0" r="7" fill="#28c840"/>
            </g>
        
    <g transform="translate(9, 41)" clip-path="url(#terminal-3953160470-clip-terminal)">
    <rect fill="#181825" x="0" y="1.5" width="1220" height="24.65" shape-rendering="crispEdges"/><rect fill="#181825" x="0" y="25.9" width="24.4" height="24.65" shape-rendering="crispEdges"/><rect fill="#181825" x="24.4" y="25.9" width="73.2" height="24.65" shape-rendering="crispEdges"/><rect fill="#181825" x="97.6" y="25.9" width="12.2" height="24.65" shape-rendering="crispEdges"/><rect fill="#181825" x="109.8" y="25.9" width="73.2" height="24.65" shape-rendering="crispEdges"/><rect fill="#181825" x="183" y="25.9" width="36.6" height="24.65" shape-rendering="crispEdges"/><rect fill="#181825" x="219.6" y="25.9" width="183" height="24.65" shape-rendering="crispEdges"/><rect fill="#181825" x="402.6" y="25.9" width="793" height="24.65" shape-rendering="crispEdges"/><rect fill="#181825" x="1195.6" y="25.9" width="24.4" height="24.65" shape-rendering="crispEdges"/><rect fill="#181825" x="0" y="50.3" width="1220" height="24.65" shape-rendering="crispEdges"/><rect fill="#313244" x="0" y="74.7" width="1220" height="24.65" shape-rendering="crispEdges"/><rect fill="#313244" x="0" y="99.1" width="24.4" height="24.65" shape-rendering="crispEdges"/><rect fill="#313244" x="24.4" y="99.1" width="134.2" height="24.65" shape-rendering="crispEdges"/><rect fill="#313244" x="158.6" y="99.1" width="48.8" height="24.65" shape-rendering="crispEdges"/><rect fill="#313244" x="207.4" y="99.1" width="36.6" height="24.65" shape-rendering="crispEdges"/><rect fill="#313244" x="244" y="99.1" width="122" height="24.65" shape-rendering="crispEdges"/><rect fill="#313244" x="366" y="99.1" width="12.2" height="24.65" shape-rendering="crispEdges"/><rect fill="#313244" x="378.2" y="99.1" width="61" height="24.65" shape-rendering="crispEdges"/><rect fill="#313244" x="439.2" y="99.1" width="36.6" height="24.65" shape-rendering="crispEdges"/><rect fill="#313244" x="475.8" y="99.1" width="97.6" height="24.65" shape-rendering="crispEdges"/><rect fill="#313244" x="573.4" y="99.1" width="12.2" height="24.65" shape-rendering="crispEdges"/><rect fill="#313244" x="585.6" y="99.1" width="36.6" height="24.65" shape-rendering="crispEdges"/><rect fill="#313244" x="622.2" y="99.1" width="36.6" height="24.65" shape-rendering="crispEdges"/><rect fill="#313244" x="658.8" y="99.1" width="61" height="24.65" shape-rendering="crispEdges"/><rect fill="#313244" x="719.8" y="99.1" width="12.2" height="24.65" shape-rendering="crispEdges"/><rect fill="#313244" x="732" y="99.1" width="109.8" height="24.65" shape-rendering="crispEdges"/><rect fill="#313244" x="841.8" y="99.1" width="353.8" height="24.65" shape-rendering="crispEdges"/><rect fill="#313244" x="1195.6" y="99.1" width="24.4" height="24.65" shape-rendering="crispEdges"/><rect fill="#313244" x="0" y="123.5" width="1220" height="24.65" shape-rendering="crispEdges"/><rect fill="#1e1e2e" x="0" y="147.9" width="1220" height="24.65" shape-rendering="crispEdges"/><rect fill="#1e1e2e" x="0" y="172.3" width="24.4" height="24.65" shape-rendering="crispEdges"/><rect fill="#1e1e2e" x="24.4" y="172.3" width="36.6" height="24.65" shape-rendering="crispEdges"/><rect fill="#1e1e2e" x="61" y="172.3" width="12.2" height="24.65" shape-rendering="crispEdges"/><rect fill="#1e1e2e" x="73.2" y="172.3" width="292.8" height="24.65" shape-rendering="crispEdges"/><rect fill="#1e1e2e" x="366" y="172.3" width="73.2" height="24.65" shape-rendering="crispEdges"/><rect fill="#1e1e2e" x="439.2" y="172.3" width="756.4" height="24.65" shape-rendering="crispEdges"/><rect fill="#1e1e2e" x="1195.6" y="172.3" width="24.4" height="24.65" shape-rendering="crispEdges"/><rect fill="#1e1e2e" x="0" y="196.7" width="24.4" height="24.65" shape-rendering="crispEdges"/><rect fill="#1e1e2e" x="24.4" y="196.7" width="36.6" height="24.65" shape-rendering="crispEdges"/><rect fill="#1e1e2e" x="61" y="196.7" width="12.2" height="24.65" shape-rendering="crispEdges"/><rect fill="#1e1e2e" x="73.2" y="196.7" width="292.8" height="24.65" shape-rendering="crispEdges"/><rect fill="#1e1e2e" x="366" y="196.7" width="73.2" height="24.65" shape-rendering="crispEdges"/><rect fill="#1e1e2e" x="439.2" y="196.7" width="756.4" height="24.65" shape-rendering="crispEdges"/><rect fill="#1e1e2e" x="1195.6" y="196.7" width="24.4" height="24.65" shape-rendering="crispEdges"/><rect fill="#1e1e2e" x="0" y="221.1" width="1220" height="24.65" shape-rendering="crispEdges"/><rect fill="#22222e" x="0" y="245.5" width="12.2" height="24.65" shape-rendering="crispEdges"/><rect fill="#22222e" x="12.2" y="245.5" width="1195.6" height="24.65" shape-rendering="crispEdges"/><rect fill="#22222e" x="1207.8" y="245.5" width="12.2" height="24.65" shape-rendering="crispEdges"/><rect fill="#22222e" x="0" y="269.9" width="12.2" height="24.65" shape-rendering="crispEdges"/><rect fill="#22222e" x="12.2" y="269.9" width="12.2" height="24.65" shape-rendering="crispEdges"/><rect fill="#22222e" x="24.4" y="269.9" width="97.6" height="24.65" shape-rendering="crispEdges"/><rect fill="#22222e" x="122" y="269.9" width="12.2" height="24.65" shape-rendering="crispEdges"/><rect fill="#22222e" x="134.2" y="269.9" width="158.6" height="24.65" shape-rendering="crispEdges"/><rect fill="#22222e" x="292.8" y="269.9" width="280.6" height="24.65" shape-rendering="crispEdges"/><rect fill="#22222e" x="573.4" y="269.9" width="597.8" height="24.65" shape-rendering="crispEdges"/><rect fill="#000000" x="1171.2" y="269.9" width="24.4" height="24.65" shape-rendering="crispEdges"/><rect fill="#22222e" x="1195.6" y="269.9" width="12.2" height="24.65" shape-rendering="crispEdges"/><rect fill="#22222e" x="1207.8" y="269.9" width="12.2" height="24.65" shape-rendering="crispEdges"/><rect fill="#22222e" x="0" y="294.3" width="12.2" height="24.65" shape-rendering="crispEdges"/><rect fill="#22222e" x="12.2" y="294.3" width="12.2" height="24.65" shape-rendering="crispEdges"/><rect fill="#22222e" x="24.4" y="294.3" width="97.6" height="24.65" shape-rendering="crispEdges"/><rect fill="#22222e" x="122" y="294.3" width="12.2" height="24.65" shape-rendering="crispEdges"/><rect fill="#22222e" x="134.2" y="294.3" width="61" height="24.65" shape-rendering="crispEdges"/><rect fill="#22222e" x="195.2" y="294.3" width="463.6" height="24.65" shape-rendering="crispEdges"/><rect fill="#22222e" x="658.8" y="294.3" width="512.4" height="24.65" shape-rendering="crispEdges"/><rect fill="#000000" x="1171.2" y="294.3" width="24.4" height="24.65" shape-rendering="crispEdges"/><rect fill="#22222e" x="1195.6" y="294.3" width="12.2" height="24.65" shape-rendering="crispEdges"/><rect fill="#22222e" x="1207.8" y="294.3" width="12.2" height="24.65" shape-rendering="crispEdges"/><rect fill="#22222e" x="0" y="318.7" width="12.2" height="24.65" shape-rendering="crispEdges"/><rect fill="#22222e" x="12.2" y="318.7" width="12.2" height="24.65" shape-rendering="crispEdges"/><rect fill="#22222e" x="24.4" y="318.7" width="97.6" height="24.65" shape-rendering="crispEdges"/><rect fill="#22222e" x="122" y="318.7" width="12.2" height="24.65" shape-rendering="crispEdges"/><rect fill="#22222e" x="134.2" y="318.7" width="170.8" height="24.65" shape-rendering="crispEdges"/><rect fill="#22222e" x="305" y="318.7" width="317.2" height="24.65" shape-rendering="crispEdges"/><rect fill="#22222e" x="622.2" y="318.7" width="549" height="24.65" shape-rendering="crispEdges"/><rect fill="#000000" x="1171.2" y="318.7" width="24.4" height="24.65" shape-rendering="crispEdges"/><rect fill="#22222e" x="1195.6" y="318.7" width="12.2" height="24.65" shape-rendering="crispEdges"/><rect fill="#22222e" x="1207.8" y="318.7" width="12.2" height="24.65" shape-rendering="crispEdges"/><rect fill="#22222e" x="0" y="343.1" width="12.2" height="24.65" shape-rendering="crispEdges"/><rect fill="#22222e" x="12.2" y="343.1" width="12.2" height="24.65" shape-rendering="crispEdges"/><rect fill="#22222e" x="24.4" y="343.1" width="97.6" height="24.65" shape-rendering="crispEdges"/><rect fill="#22222e" x="122" y="343.1" width="12.2" height="24.65" shape-rendering="crispEdges"/><rect fill="#22222e" x="134.2" y="343.1" width="146.4" height="24.65" shape-rendering="crispEdges"/><rect fill="#22222e" x="280.6" y="343.1" width="305" height="24.65" shape-rendering="crispEdges"/><rect fill="#22222e" x="585.6" y="343.1" width="585.6" height="24.65" shape-rendering="crispEdges"/><rect fill="#000000" x="1171.2" y="343.1" width="24.4" height="24.65" shape-rendering="crispEdges"/><rect fill="#22222e" x="1195.6" y="343.1" width="12.2" height="24.65" shape-rendering="crispEdges"/><rect fill="#22222e" x="1207.8" y="343.1" width="12.2" height="24.65" shape-rendering="crispEdges"/><rect fill="#22222e" x="0" y="367.5" width="12.2" height="24.65" shape-rendering="crispEdges"/><rect fill="#22222e" x="12.2" y="367.5" width="12.2" height="24.65" shape-rendering="crispEdges"/><rect fill="#22222e" x="24.4" y="367.5" width="97.6" height="24.65" shape-rendering="crispEdges"/><rect fill="#22222e" x="122" y="367.5" width="12.2" height="24.65" shape-rendering="crispEdges"/><rect fill="#22222e" x="134.2" y="367.5" width="48.8" height="24.65" shape-rendering="crispEdges"/><rect fill="#22222e" x="183" y="367.5" width="268.4" height="24.65" shape-rendering="crispEdges"/><rect fill="#22222e" x="451.4" y="367.5" width="719.8" height="24.65" shape-rendering="crispEdges"/><rect fill="#000000" x="1171.2" y="367.5" width="24.4" height="24.65" shape-rendering="crispEdges"/><rect fill="#22222e" x="1195.6" y="367.5" width="12.2" height="24.65" shape-rendering="crispEdges"/><rect fill="#22222e" x="1207.8" y="367.5" width="12.2" height="24.65" shape-rendering="crispEdges"/><rect fill="#22222e" x="0" y="391.9" width="12.2" height="24.65" shape-rendering="crispEdges"/><rect fill="#22222e" x="12.2" y="391.9" width="12.2" height="24.65" shape-rendering="crispEdges"/><rect fill="#22222e" x="24.4" y="391.9" width="97.6" height="24.65" shape-rendering="crispEdges"/><rect fill="#22222e" x="122" y="391.9" width="12.2" height="24.65" shape-rendering="crispEdges"/><rect fill="#22222e" x="134.2" y="391.9" width="122" height="24.65" shape-rendering="crispEdges"/><rect fill="#22222e" x="256.2" y="391.9" width="915" height="24.65" shape-rendering="crispEdges"/><rect fill="#000000" x="1171.2" y="391.9" width="24.4" height="24.65" shape-rendering="crispEdges"/><rect fill="#22222e" x="1195.6" y="391.9" width="12.2" height="24.65" shape-rendering="crispEdges"/><rect fill="#22222e" x="1207.8" y="391.9" width="12.2" height="24.65" shape-rendering="crispEdges"/><rect fill="#22222e" x="0" y="416.3" width="12.2" height="24.65" shape-rendering="crispEdges"/><rect fill="#22222e" x="12.2" y="416.3" width="12.2" height="24.65" shape-rendering="crispEdges"/><rect fill="#22222e" x="24.4" y="416.3" width="1146.8" height="24.65" shape-rendering="crispEdges"/><rect fill="#000000" x="1171.2" y="416.3" width="24.4" height="24.65" shape-rendering="crispEdges"/><rect fill="#22222e" x="1195.6" y="416.3" width="12.2" height="24.65" shape-rendering="crispEdges"/><rect fill="#22222e" x="1207.8" y="416.3" width="12.2" height="24.65" shape-rendering="crispEdges"/><rect fill="#22222e" x="0" y="440.7" width="12.2" height="24.65" shape-rendering="crispEdges"/><rect fill="#22222e" x="12.2" y="440.7" width="12.2" height="24.65" shape-rendering="crispEdges"/><rect fill="#22222e" x="24.4" y="440.7" width="1146.8" height="24.65" shape-rendering="crispEdges"/><rect fill="#000000" x="1171.2" y="440.7" width="24.4" height="24.65" shape-rendering="crispEdges"/><rect fill="#22222e" x="1195.6" y="440.7" width="12.2" height="24.65" shape-rendering="crispEdges"/><rect fill="#22222e" x="1207.8" y="440.7" width="12.2" height="24.65" shape-rendering="crispEdges"/><rect fill="#22222e" x="0" y="465.1" width="12.2" height="24.65" shape-rendering="crispEdges"/><rect fill="#22222e" x="12.2" y="465.1" width="12.2" height="24.65" shape-rendering="crispEdges"/><rect fill="#22222e" x="24.4" y="465.1" width="1146.8" height="24.65" shape-rendering="crispEdges"/><rect fill="#000000" x="1171.2" y="465.1" width="24.4" height="24.65" shape-rendering="crispEdges"/><rect fill="#22222e" x="1195.6" y="465.1" width="12.2" height="24.65" shape-rendering="crispEdges"/><rect fill="#22222e" x="1207.8" y="465.1" width="12.2" height="24.65" shape-rendering="crispEdges"/><rect fill="#22222e" x="0" y="489.5" width="12.2" height="24.65" shape-rendering="crispEdges"/><rect fill="#22222e" x="12.2" y="489.5" width="12.2" height="24.65" shape-rendering="crispEdges"/><rect fill="#22222e" x="24.4" y="489.5" width="1146.8" height="24.65" shape-rendering="crispEdges"/><rect fill="#000000" x="1171.2" y="489.5" width="24.4" height="24.65" shape-rendering="crispEdges"/><rect fill="#22222e" x="1195.6" y="489.5" width="12.2" height="24.65" shape-rendering="crispEdges"/><rect fill="#22222e" x="1207.8" y="489.5" width="12.2" height="24.65" shape-rendering="crispEdges"/><rect fill="#22222e" x="0" y="513.9" width="12.2" height="24.65" shape-rendering="crispEdges"/><rect fill="#22222e" x="12.2" y="513.9" width="12.2" height="24.65" shape-rendering="crispEdges"/><rect fill="#22222e" x="24.4" y="513.9" width="1146.8" height="24.65" shape-rendering="crispEdges"/><rect fill="#000000" x="1171.2" y="513.9" width="24.4" height="24.65" shape-rendering="crispEdges"/><rect fill="#22222e" x="1195.6" y="513.9" width="12.2" height="24.65" shape-rendering="crispEdges"/><rect fill="#22222e" x="1207.8" y="513.9" width="12.2" height="24.65" shape-rendering="crispEdges"/><rect fill="#22222e" x="0" y="538.3" width="12.2" height="24.65" shape-rendering="crispEdges"/><rect fill="#22222e" x="12.2" y="538.3" width="12.2" height="24.65" shape-rendering="crispEdges"/><rect fill="#22222e" x="24.4" y="538.3" width="1146.8" height="24.65" shape-rendering="crispEdges"/><rect fill="#000000" x="1171.2" y="538.3" width="24.4" height="24.65" shape-rendering="crispEdges"/><rect fill="#22222e" x="1195.6" y="538.3" width="12.2" height="24.65" shape-rendering="crispEdges"/><rect fill="#22222e" x="1207.8" y="538.3" width="12.2" height="24.65" shape-rendering="crispEdges"/><rect fill="#22222e" x="0" y="562.7" width="12.2" height="24.65" shape-rendering="crispEdges"/><rect fill="#22222e" x="12.2" y="562.7" width="12.2" height="24.65" shape-rendering="crispEdges"/><rect fill="#22222e" x="24.4" y="562.7" width="1146.8" height="24.65" shape-rendering="crispEdges"/><rect fill="#000000" x="1171.2" y="562.7" width="24.4" height="24.65" shape-rendering="crispEdges"/><rect fill="#22222e" x="1195.6" y="562.7" width="12.2" height="24.65" shape-rendering="crispEdges"/><rect fill="#22222e" x="1207.8" y="562.7" width="12.2" height="24.65" shape-rendering="crispEdges"/><rect fill="#22222e" x="0" y="587.1" width="12.2" height="24.65" shape-rendering="crispEdges"/><rect fill="#22222e" x="12.2" y="587.1" width="1195.6" height="24.65" shape-rendering="crispEdges"/><rect fill="#22222e" x="1207.8" y="587.1" width="12.2" height="24.65" shape-rendering="crispEdges"/><rect fill="#181825" x="0" y="611.5" width="36.6" height="24.65" shape-rendering="crispEdges"/><rect fill="#181825" x="36.6" y="611.5" width="122" height="24.65" shape-rendering="crispEdges"/><rect fill="#181825" x="158.6" y="611.5" width="36.6" height="24.65" shape-rendering="crispEdges"/><rect fill="#181825" x="195.2" y="611.5" width="134.2" height="24.65" shape-rendering="crispEdges"/><rect fill="#181825" x="329.4" y="611.5" width="36.6" height="24.65" shape-rendering="crispEdges"/><rect fill="#181825" x="366" y="611.5" width="146.4" height="24.65" shape-rendering="crispEdges"/><rect fill="#181825" x="512.4" y="611.5" width="36.6" height="24.65" shape-rendering="crispEdges"/><rect fill="#181825" x="549" y="611.5" width="146.4" height="24.65" shape-rendering="crispEdges"/><rect fill="#181825" x="695.4" y="611.5" width="36.6" height="24.65" shape-rendering="crispEdges"/><rect fill="#181825" x="732" y="611.5" width="61" height="24.65" shape-rendering="crispEdges"/><rect fill="#181825" x="793" y="611.5" width="280.6" height="24.65" shape-rendering="crispEdges"/><rect fill="#181825" x="1073.6" y="611.5" width="12.2" height="24.65" shape-rendering="crispEdges"/><rect fill="#181825" x="1085.8" y="611.5" width="24.4" height="24.65" shape-rendering="crispEdges"/><rect fill="#181825" x="1110.2" y="611.5" width="97.6" height="24.65" shape-rendering="crispEdges"/><rect fill="#181825" x="1207.8" y="611.5" width="12.2" height="24.65" shape-rendering="crispEdges"/>
    <g class="terminal-3953160470-matrix">
    <text class="terminal-3953160470-r1" x="1220" y="20" textLength="12.2" clip-path="url(#terminal-3953160470-line-0)">
</text><text class="terminal-3953160470-r2" x="24.4" y="44.4" textLength="73.2" clip-path="url(#terminal-3953160470-line-1)">purrge</text><text class="terminal-3953160470-r4" x="109.8" y="44.4" textLength="73.2" clip-path="url(#terminal-3953160470-line-1)">v0.1.0</text><text class="terminal-3953160470-r5" x="219.6" y="44.4" textLength="183" clip-path="url(#terminal-3953160470-line-1)">uptime&#160;01:15:23</text><text class="terminal-3953160470-r1" x="1220" y="44.4" textLength="12.2" clip-path="url(#terminal-3953160470-line-1)">
</text><text class="terminal-3953160470-r1" x="1220" y="68.8" textLength="12.2" clip-path="url(#terminal-3953160470-line-2)">
</text><text class="terminal-3953160470-r1" x="1220" y="93.2" textLength="12.2" clip-path="url(#terminal-3953160470-line-3)">
</text><text class="terminal-3953160470-r3" x="24.4" y="117.6" textLength="134.2" clip-path="url(#terminal-3953160470-line-4)">keep-awake&#160;</text><text class="terminal-3953160470-r6" x="158.6" y="117.6" textLength="48.8" clip-path="url(#terminal-3953160470-line-4)">●&#160;on</text><text class="terminal-3953160470-r5" x="244" y="117.6" textLength="122" clip-path="url(#terminal-3953160470-line-4)">next&#160;clean</text><text class="terminal-3953160470-r7" x="378.2" y="117.6" textLength="61" clip-path="url(#terminal-3953160470-line-4)">29:59</text><text class="terminal-3953160470-r5" x="475.8" y="117.6" textLength="97.6" clip-path="url(#terminal-3953160470-line-4)">interval</text><text class="terminal-3953160470-r7" x="585.6" y="117.6" textLength="36.6" clip-path="url(#terminal-3953160470-line-4)">30m</text><text class="terminal-3953160470-r5" x="658.8" y="117.6" textLength="61" clip-path="url(#terminal-3953160470-line-4)">freed</text><text class="terminal-3953160470-r6" x="732" y="117.6" textLength="109.8" clip-path="url(#terminal-3953160470-line-4)">1841.4&#160;mb</text><text class="terminal-3953160470-r1" x="1220" y="117.6" textLength="12.2" clip-path="url(#terminal-3953160470-line-4)">
</text><text class="terminal-3953160470-r1" x="1220" y="142" textLength="12.2" clip-path="url(#terminal-3953160470-line-5)">
</text><text class="terminal-3953160470-r1" x="1220" y="166.4" textLength="12.2" clip-path="url(#terminal-3953160470-line-6)">
</text><text class="terminal-3953160470-r5" x="24.4" y="190.8" textLength="36.6" clip-path="url(#terminal-3953160470-line-7)">cpu</text><text class="terminal-3953160470-r8" x="73.2" y="190.8" textLength="292.8" clip-path="url(#terminal-3953160470-line-7)">█████████░░░░░░░░░░░░░░░</text><text class="terminal-3953160470-r3" x="366" y="190.8" textLength="73.2" clip-path="url(#terminal-3953160470-line-7)">&#160;&#160;&#160;37%</text><text class="terminal-3953160470-r1" x="1220" y="190.8" textLength="12.2" clip-path="url(#terminal-3953160470-line-7)">
</text><text class="terminal-3953160470-r5" x="24.4" y="215.2" textLength="36.6" clip-path="url(#terminal-3953160470-line-8)">ram</text><text class="terminal-3953160470-r9" x="73.2" y="215.2" textLength="292.8" clip-path="url(#terminal-3953160470-line-8)">████████░░░░░░░░░░░░░░░░</text><text class="terminal-3953160470-r3" x="366" y="215.2" textLength="73.2" clip-path="url(#terminal-3953160470-line-8)">&#160;&#160;&#160;33%</text><text class="terminal-3953160470-r1" x="1220" y="215.2" textLength="12.2" clip-path="url(#terminal-3953160470-line-8)">
</text><text class="terminal-3953160470-r1" x="1220" y="239.6" textLength="12.2" clip-path="url(#terminal-3953160470-line-9)">
</text><text class="terminal-3953160470-r10" x="0" y="264" textLength="12.2" clip-path="url(#terminal-3953160470-line-10)">╭</text><text class="terminal-3953160470-r10" x="12.2" y="264" textLength="1195.6" clip-path="url(#terminal-3953160470-line-10)">──────────────────────────────────────────────────────────────────────────────────────────────────</text><text class="terminal-3953160470-r10" x="1207.8" y="264" textLength="12.2" clip-path="url(#terminal-3953160470-line-10)">╮</text><text class="terminal-3953160470-r1" x="1220" y="264" textLength="12.2" clip-path="url(#terminal-3953160470-line-10)">
</text><text class="terminal-3953160470-r10" x="0" y="288.4" textLength="12.2" clip-path="url(#terminal-3953160470-line-11)">│</text><text class="terminal-3953160470-r4" x="24.4" y="288.4" textLength="97.6" clip-path="url(#terminal-3953160470-line-11)">17:13:22</text><text class="terminal-3953160470-r9" x="134.2" y="288.4" textLength="158.6" clip-path="url(#terminal-3953160470-line-11)">purrge&#160;v0.1.0</text><text class="terminal-3953160470-r11" x="292.8" y="288.4" textLength="280.6" clip-path="url(#terminal-3953160470-line-11)">&#160;started,&#160;keep-awake&#160;on</text><text class="terminal-3953160470-r10" x="1207.8" y="288.4" textLength="12.2" clip-path="url(#terminal-3953160470-line-11)">│</text><text class="terminal-3953160470-r1" x="1220" y="288.4" textLength="12.2" clip-path="url(#terminal-3953160470-line-11)">
</text><text class="terminal-3953160470-r10" x="0" y="312.8" textLength="12.2" clip-path="url(#terminal-3953160470-line-12)">│</text><text class="terminal-3953160470-r4" x="24.4" y="312.8" textLength="97.6" clip-path="url(#terminal-3953160470-line-12)">17:13:23</text><text class="terminal-3953160470-r6" x="134.2" y="312.8" textLength="61" clip-path="url(#terminal-3953160470-line-12)">temp:</text><text class="terminal-3953160470-r11" x="195.2" y="312.8" textLength="463.6" clip-path="url(#terminal-3953160470-line-12)">&#160;freed&#160;184.5&#160;mb,&#160;241&#160;items,&#160;12&#160;skipped</text><text class="terminal-3953160470-r10" x="1207.8" y="312.8" textLength="12.2" clip-path="url(#terminal-3953160470-line-12)">│</text><text class="terminal-3953160470-r1" x="1220" y="312.8" textLength="12.2" clip-path="url(#terminal-3953160470-line-12)">
</text><text class="terminal-3953160470-r10" x="0" y="337.2" textLength="12.2" clip-path="url(#terminal-3953160470-line-13)">│</text><text class="terminal-3953160470-r4" x="24.4" y="337.2" textLength="97.6" clip-path="url(#terminal-3953160470-line-13)">17:13:23</text><text class="terminal-3953160470-r6" x="134.2" y="337.2" textLength="170.8" clip-path="url(#terminal-3953160470-line-13)">browser_cache:</text><text class="terminal-3953160470-r11" x="305" y="337.2" textLength="317.2" clip-path="url(#terminal-3953160470-line-13)">&#160;freed&#160;83.3&#160;mb,&#160;1024&#160;items</text><text class="terminal-3953160470-r10" x="1207.8" y="337.2" textLength="12.2" clip-path="url(#terminal-3953160470-line-13)">│</text><text class="terminal-3953160470-r1" x="1220" y="337.2" textLength="12.2" clip-path="url(#terminal-3953160470-line-13)">
</text><text class="terminal-3953160470-r10" x="0" y="361.6" textLength="12.2" clip-path="url(#terminal-3953160470-line-14)">│</text><text class="terminal-3953160470-r4" x="24.4" y="361.6" textLength="97.6" clip-path="url(#terminal-3953160470-line-14)">17:13:23</text><text class="terminal-3953160470-r6" x="134.2" y="361.6" textLength="146.4" clip-path="url(#terminal-3953160470-line-14)">ram_standby:</text><text class="terminal-3953160470-r11" x="280.6" y="361.6" textLength="305" clip-path="url(#terminal-3953160470-line-14)">&#160;freed&#160;1573.6&#160;mb,&#160;1&#160;items</text><text class="terminal-3953160470-r10" x="1207.8" y="361.6" textLength="12.2" clip-path="url(#terminal-3953160470-line-14)">│</text><text class="terminal-3953160470-r1" x="1220" y="361.6" textLength="12.2" clip-path="url(#terminal-3953160470-line-14)">
</text><text class="terminal-3953160470-r10" x="0" y="386" textLength="12.2" clip-path="url(#terminal-3953160470-line-15)">│</text><text class="terminal-3953160470-r4" x="24.4" y="386" textLength="97.6" clip-path="url(#terminal-3953160470-line-15)">17:13:23</text><text class="terminal-3953160470-r6" x="134.2" y="386" textLength="48.8" clip-path="url(#terminal-3953160470-line-15)">dns:</text><text class="terminal-3953160470-r11" x="183" y="386" textLength="268.4" clip-path="url(#terminal-3953160470-line-15)">&#160;freed&#160;0.0&#160;mb,&#160;1&#160;items</text><text class="terminal-3953160470-r10" x="1207.8" y="386" textLength="12.2" clip-path="url(#terminal-3953160470-line-15)">│</text><text class="terminal-3953160470-r1" x="1220" y="386" textLength="12.2" clip-path="url(#terminal-3953160470-line-15)">
</text><text class="terminal-3953160470-r10" x="0" y="410.4" textLength="12.2" clip-path="url(#terminal-3953160470-line-16)">│</text><text class="terminal-3953160470-r4" x="24.4" y="410.4" textLength="97.6" clip-path="url(#terminal-3953160470-line-16)">17:13:23</text><text class="terminal-3953160470-r6" x="134.2" y="410.4" textLength="122" clip-path="url(#terminal-3953160470-line-16)">clean&#160;done</text><text class="terminal-3953160470-r10" x="1207.8" y="410.4" textLength="12.2" clip-path="url(#terminal-3953160470-line-16)">│</text><text class="terminal-3953160470-r1" x="1220" y="410.4" textLength="12.2" clip-path="url(#terminal-3953160470-line-16)">
</text><text class="terminal-3953160470-r10" x="0" y="434.8" textLength="12.2" clip-path="url(#terminal-3953160470-line-17)">│</text><text class="terminal-3953160470-r10" x="1207.8" y="434.8" textLength="12.2" clip-path="url(#terminal-3953160470-line-17)">│</text><text class="terminal-3953160470-r1" x="1220" y="434.8" textLength="12.2" clip-path="url(#terminal-3953160470-line-17)">
</text><text class="terminal-3953160470-r10" x="0" y="459.2" textLength="12.2" clip-path="url(#terminal-3953160470-line-18)">│</text><text class="terminal-3953160470-r10" x="1207.8" y="459.2" textLength="12.2" clip-path="url(#terminal-3953160470-line-18)">│</text><text class="terminal-3953160470-r1" x="1220" y="459.2" textLength="12.2" clip-path="url(#terminal-3953160470-line-18)">
</text><text class="terminal-3953160470-r10" x="0" y="483.6" textLength="12.2" clip-path="url(#terminal-3953160470-line-19)">│</text><text class="terminal-3953160470-r10" x="1207.8" y="483.6" textLength="12.2" clip-path="url(#terminal-3953160470-line-19)">│</text><text class="terminal-3953160470-r1" x="1220" y="483.6" textLength="12.2" clip-path="url(#terminal-3953160470-line-19)">
</text><text class="terminal-3953160470-r10" x="0" y="508" textLength="12.2" clip-path="url(#terminal-3953160470-line-20)">│</text><text class="terminal-3953160470-r10" x="1207.8" y="508" textLength="12.2" clip-path="url(#terminal-3953160470-line-20)">│</text><text class="terminal-3953160470-r1" x="1220" y="508" textLength="12.2" clip-path="url(#terminal-3953160470-line-20)">
</text><text class="terminal-3953160470-r10" x="0" y="532.4" textLength="12.2" clip-path="url(#terminal-3953160470-line-21)">│</text><text class="terminal-3953160470-r10" x="1207.8" y="532.4" textLength="12.2" clip-path="url(#terminal-3953160470-line-21)">│</text><text class="terminal-3953160470-r1" x="1220" y="532.4" textLength="12.2" clip-path="url(#terminal-3953160470-line-21)">
</text><text class="terminal-3953160470-r10" x="0" y="556.8" textLength="12.2" clip-path="url(#terminal-3953160470-line-22)">│</text><text class="terminal-3953160470-r10" x="1207.8" y="556.8" textLength="12.2" clip-path="url(#terminal-3953160470-line-22)">│</text><text class="terminal-3953160470-r1" x="1220" y="556.8" textLength="12.2" clip-path="url(#terminal-3953160470-line-22)">
</text><text class="terminal-3953160470-r10" x="0" y="581.2" textLength="12.2" clip-path="url(#terminal-3953160470-line-23)">│</text><text class="terminal-3953160470-r10" x="1207.8" y="581.2" textLength="12.2" clip-path="url(#terminal-3953160470-line-23)">│</text><text class="terminal-3953160470-r1" x="1220" y="581.2" textLength="12.2" clip-path="url(#terminal-3953160470-line-23)">
</text><text class="terminal-3953160470-r10" x="0" y="605.6" textLength="12.2" clip-path="url(#terminal-3953160470-line-24)">╰</text><text class="terminal-3953160470-r10" x="12.2" y="605.6" textLength="1195.6" clip-path="url(#terminal-3953160470-line-24)">──────────────────────────────────────────────────────────────────────────────────────────────────</text><text class="terminal-3953160470-r10" x="1207.8" y="605.6" textLength="12.2" clip-path="url(#terminal-3953160470-line-24)">╯</text><text class="terminal-3953160470-r1" x="1220" y="605.6" textLength="12.2" clip-path="url(#terminal-3953160470-line-24)">
</text><text class="terminal-3953160470-r12" x="0" y="630" textLength="36.6" clip-path="url(#terminal-3953160470-line-25)">&#160;c&#160;</text><text class="terminal-3953160470-r11" x="36.6" y="630" textLength="122" clip-path="url(#terminal-3953160470-line-25)">clean&#160;now&#160;</text><text class="terminal-3953160470-r12" x="158.6" y="630" textLength="36.6" clip-path="url(#terminal-3953160470-line-25)">&#160;a&#160;</text><text class="terminal-3953160470-r11" x="195.2" y="630" textLength="134.2" clip-path="url(#terminal-3953160470-line-25)">keep-awake&#160;</text><text class="terminal-3953160470-r12" x="329.4" y="630" textLength="36.6" clip-path="url(#terminal-3953160470-line-25)">&#160;+&#160;</text><text class="terminal-3953160470-r11" x="366" y="630" textLength="146.4" clip-path="url(#terminal-3953160470-line-25)">interval&#160;+5&#160;</text><text class="terminal-3953160470-r12" x="512.4" y="630" textLength="36.6" clip-path="url(#terminal-3953160470-line-25)">&#160;-&#160;</text><text class="terminal-3953160470-r11" x="549" y="630" textLength="146.4" clip-path="url(#terminal-3953160470-line-25)">interval&#160;-5&#160;</text><text class="terminal-3953160470-r12" x="695.4" y="630" textLength="36.6" clip-path="url(#terminal-3953160470-line-25)">&#160;q&#160;</text><text class="terminal-3953160470-r11" x="732" y="630" textLength="61" clip-path="url(#terminal-3953160470-line-25)">quit&#160;</text><text class="terminal-3953160470-r13" x="1073.6" y="630" textLength="12.2" clip-path="url(#terminal-3953160470-line-25)">▏</text><text class="terminal-3953160470-r12" x="1085.8" y="630" textLength="24.4" clip-path="url(#terminal-3953160470-line-25)">^p</text><text class="terminal-3953160470-r11" x="1110.2" y="630" textLength="97.6" clip-path="url(#terminal-3953160470-line-25)">&#160;palette</text>
    </g>
    </g>
</svg>
